<svg xmlns="http://www.w3.org/2000/svg" width="41" height="41" viewBox="0 0 41 41"><g transform="translate(-1431.5 -7579.5)"><g transform="translate(1432 7580)"><rect width="40" height="40" rx="20" fill="none" stroke="#25fcf4" stroke-width="1"/></g><path d="M133.951,4.68a.879.879,0,1,0,.879.879.878.878,0,0,0-.879-.879m-3.91,1.127A3.695,3.695,0,1,0,133.735,9.5a3.695,3.695,0,0,0-3.694-3.695m0,6.06A2.365,2.365,0,1,1,132.406,9.5a2.365,2.365,0,0,1-2.365,2.365M132.973,17h-5.988a4.511,4.511,0,0,1-4.5-4.506V6.506A4.511,4.511,0,0,1,126.985,2h5.988a4.51,4.51,0,0,1,4.5,4.506v5.988a4.51,4.51,0,0,1-4.5,4.506M126.985,3.413a3.1,3.1,0,0,0-3.094,3.094v5.988a3.1,3.1,0,0,0,3.094,3.1h5.988a3.1,3.1,0,0,0,3.094-3.1V6.507a3.1,3.1,0,0,0-3.094-3.094Z" transform="translate(1322.52 7591)" fill="#25fcf4"/></g></svg>