<svg xmlns="http://www.w3.org/2000/svg" width="41" height="41" viewBox="0 0 41 41"><g transform="translate(-1493.5 -7579.5)"><g transform="translate(1494 7580)"><rect width="40" height="40" rx="20" fill="none" stroke="#25fcf4" stroke-width="1"/></g><path d="M98.587,17H95.3V7.107h3.287ZM96.943,5.758H96.92a1.879,1.879,0,1,1,.021,0M110.441,17h-3.285V11.7c0-1.33-.477-2.237-1.667-2.237a1.8,1.8,0,0,0-1.686,1.2,2.249,2.249,0,0,0-.109.806v5.524h-3.287s.043-8.966,0-9.891h3.287V8.5a3.265,3.265,0,0,1,2.964-1.633c2.163,0,3.785,1.41,3.785,4.452Z" transform="translate(1411.948 7590)" fill="#25fcf4"/></g></svg>