<svg xmlns="http://www.w3.org/2000/svg" width="41" height="41" viewBox="0 0 41 41"><g transform="translate(-1555.5 -7579.5)"><g transform="translate(1556 7580)"><rect width="40" height="40" rx="20" fill="none" stroke="#25fcf4" stroke-width="1"/></g><path d="M59.694,3.366,56.989,16.1c-.206.9-.743,1.115-1.486.692l-4.117-3.034L49.4,15.677a1.075,1.075,0,0,1-.836.4l.289-4.19L56.494,5c.33-.288-.083-.454-.515-.165l-9.423,5.934L42.492,9.5c-.888-.279-.9-.877.184-1.3L58.549,2.076c.731-.268,1.379.175,1.145,1.29" transform="translate(1524.156 7591)" fill="#25fcf4"/></g></svg>