<svg xmlns="http://www.w3.org/2000/svg" width="41" height="41" viewBox="0 0 41 41"><g transform="translate(-1615.5 -7579.5)"><path d="M18.129,3.8a7.553,7.553,0,0,1-1.841.524c.3-.05.731-.585.905-.8A3.352,3.352,0,0,0,17.8,2.4c.015-.031.028-.072,0-.1a.1.1,0,0,0-.1.009,9.381,9.381,0,0,1-2.182.834.142.142,0,0,1-.149-.041,1.676,1.676,0,0,0-.192-.194,3.818,3.818,0,0,0-1.055-.647,3.685,3.685,0,0,0-1.618-.262,3.88,3.88,0,0,0-1.537.435A3.952,3.952,0,0,0,9.729,3.455a3.81,3.81,0,0,0-.747,1.483A4.028,4.028,0,0,0,8.944,6.5c.011.087,0,.1-.076.087a11.648,11.648,0,0,1-7.5-3.815c-.088-.1-.135-.1-.207.008a3.8,3.8,0,0,0,.647,4.49c.147.139.3.278.461.4a3.8,3.8,0,0,1-1.447-.4C.739,7.218.7,7.25.688,7.35a2.376,2.376,0,0,0,.024.43,3.842,3.842,0,0,0,2.365,3.064,2.27,2.27,0,0,0,.479.147,4.3,4.3,0,0,1-1.418.044c-.1-.02-.143.032-.1.13a3.982,3.982,0,0,0,2.979,2.5c.135.023.271.023.406.056-.009.012-.017.012-.025.023A4.722,4.722,0,0,1,3.36,14.819a7.278,7.278,0,0,1-3.09.395c-.167-.025-.2-.022-.249,0s-.006.068.047.111c.212.139.426.262.644.382a10.164,10.164,0,0,0,2.066.826,11.005,11.005,0,0,0,10.683-2.5,11.211,11.211,0,0,0,2.957-8.179c0-.119.138-.183.22-.249a7.224,7.224,0,0,0,1.455-1.513.46.46,0,0,0,.1-.29V3.8c.016-.042.016-.029-.06,0" transform="translate(1627 7591)" fill="#25fcf4"/><g transform="translate(1616 7580)"><rect width="40" height="40" rx="20" fill="none" stroke="#25fcf4" stroke-width="1"/></g></g></svg>